<?xml version="1.0" encoding="utf-8"?>
<!-- Generator: Adobe Illustrator 27.5.0, SVG Export Plug-In . SVG Version: 6.00 Build 0)  -->
<svg version="1.1" id="Ñëîé_1" xmlns="http://www.w3.org/2000/svg" xmlns:xlink="http://www.w3.org/1999/xlink" x="0px" y="0px"
	 viewBox="0 0 600 600" style="enable-background:new 0 0 600 600;" xml:space="preserve">
<g>
	<rect x="-0.09" style="fill:#ffffff00;" width="600" height="600"/>
	<g>
		<path style="fill:#ffffff00;" d="M348.685,347.278l-2.157-104.3l1.727-9.351c0,0-0.755-49.093-2.266-59.559
			c-1.511-10.466-23.414-34.419-43.267-35.93c-19.853-1.511-28.27-1.187-28.27-1.187s-8.417-0.324-28.27,1.187
			c-19.853,1.511-41.756,25.464-43.267,35.93c-1.511,10.466-2.266,59.559-2.266,59.559l1.727,9.351l-0.635,30.678
			c-0.922,0.406-1.745,0.798-2.387,1.152c-3.29,1.816-4.693,4.046-4.963,5.107c-0.27,1.061-0.594,3.255,0,3.417
			c0.26,0.071,3.563-0.955,7.193-2.131l-1.367,66.078l1.007,46.612l-1.007,4.748l1.295,50.783c0,0,3.453,33.088,17.12,44.885
			c13.667,11.797,55.819,11.677,55.819,11.677s42.152,0.12,55.818-11.677c13.667-11.797,17.12-44.885,17.12-44.885l1.294-50.783
			l-1.007-4.748L348.685,347.278z"/>
		<g>
			<path style="fill:#FFCF29;" d="M374.143,325.946l-2.157-104.302l1.727-9.351c0,0-0.755-49.093-2.266-59.559
				c-1.511-10.466-23.413-34.42-43.267-35.93c-19.853-1.511-28.27-1.187-28.27-1.187s-8.416-0.324-28.269,1.187
				c-19.853,1.511-41.756,25.464-43.267,35.93c-1.51,10.466-2.266,59.559-2.266,59.559l1.727,9.351l-2.158,104.302l1.007,46.61
				l-1.007,4.748l1.295,50.784c0,0,3.453,33.088,17.12,44.885c13.667,11.797,55.819,11.677,55.819,11.677s42.152,0.12,55.819-11.677
				c13.667-11.797,17.119-44.885,17.119-44.885l1.294-50.784l-1.006-4.748L374.143,325.946z"/>
			<path style="fill:#FDC91E;" d="M299.91,115.618c0,0-8.416-0.324-28.269,1.187c-19.853,1.511-41.756,25.464-43.267,35.93
				c-1.51,10.466-2.266,59.559-2.266,59.559l1.727,9.351l-2.158,104.302l1.007,46.61l-1.007,4.748l1.295,50.784
				c0,0,3.453,33.088,17.12,44.885c13.667,11.797,55.819,11.677,55.819,11.677V118.783V115.618z"/>
			<polygon style="fill:#FFD64E;" points="346.752,278.318 299.91,262.001 253.068,278.318 244.794,286.592 245.592,378.315 
				253.194,398.479 299.91,400.053 346.627,398.479 354.227,378.315 355.026,286.592 			"/>
			<path style="fill:#414141;" d="M238.624,236.247c-0.58,0.378-0.935,70.062-0.935,70.062s2.481,85.867,3.309,87.791
				c0.827,1.925,7.134-24.774,7.337-26.435c0.203-1.658,1.403-28.268,1.403-28.268s-0.882-49.741-1.08-52.222
				C248.461,284.693,239.205,235.869,238.624,236.247z"/>
			<polygon style="fill:#474747;" points="238.51,333.319 249.7,337.274 249.533,343.897 238.757,341.05 			"/>
			<path style="fill:#FFD64E;" d="M349.593,445.01c-0.642-16.509-1.269-38.178-3.088-40.616c-1.118-1.499-13.758,2.574-22.057,3.706
				c-8.3,1.132-24.538,1.263-24.538,1.263s-16.239-0.131-24.538-1.263c-8.299-1.132-20.938-5.205-22.057-3.706
				c-1.819,2.438-2.446,24.107-3.088,40.616c-0.496,12.775,1.589,15.108,2.371,15.986c0.782,0.881,4.025,4.529,14.888,7.375
				c10.863,2.845,32.423,3.696,32.423,3.696s21.561-0.852,32.424-3.696c10.863-2.846,14.105-6.494,14.888-7.375
				C348.005,460.118,350.089,457.785,349.593,445.01z"/>
			<path style="fill:#FFFFFF;" d="M238.084,140.809c0,0-1.449,5.891-1.421,7.014c0.027,1.123,3.894-3.179,5.936-5.203
				c0.96-0.953,4.545-4.219,9.746-8.057c5.859-4.323,11.313-6.593,12.129-8.064c0.816-1.472,3.291-5.935,3.291-5.935
				s-9.235,3.373-12.732,5.395c-3.497,2.022-10.512,7.67-12.57,9.657C240.404,137.602,238.084,140.809,238.084,140.809z"/>
			<path style="fill:#414141;" d="M361.196,236.247c0.58,0.378,0.935,70.062,0.935,70.062s-2.482,85.867-3.309,87.791
				c-0.827,1.925-7.136-24.774-7.337-26.435c-0.203-1.658-1.403-28.268-1.403-28.268s0.882-49.741,1.079-52.222
				C351.359,284.693,360.616,235.869,361.196,236.247z"/>
			<polygon style="fill:#474747;" points="361.31,333.319 350.12,337.274 350.287,343.897 361.063,341.05 			"/>
			<path style="fill:#343434;" d="M348.519,421.867c-0.628-15.34-1.241-35.473-3.021-37.737c-1.095-1.394-13.46,2.391-21.579,3.442
				c-8.119,1.053-24.008,1.174-24.008,1.174s-15.888-0.121-24.007-1.174c-8.119-1.052-20.485-4.836-21.58-3.442
				c-1.78,2.265-2.394,22.397-3.021,37.737c-0.485,11.868,1.555,14.036,2.32,14.853c0.766,0.817,3.938,4.209,14.566,6.852
				c10.628,2.645,31.722,3.436,31.722,3.436s21.094-0.791,31.722-3.436c10.628-2.643,13.801-6.034,14.567-6.852
				C346.963,435.903,349.003,433.735,348.519,421.867z"/>
			<path style="fill:#414141;" d="M342.925,412.138c-0.091-5.608-1.231-21.624-2.31-22.704c-1.08-1.078-11.608,1.934-19.719,2.725
				c-8.11,0.792-20.986,1.007-20.986,1.007s-12.876-0.215-20.986-1.007c-8.11-0.791-18.639-3.803-19.718-2.725
				c-1.079,1.08-2.22,17.096-2.311,22.704c-0.091,5.608-1.78,17.048-0.072,22.138c1.709,5.089,13.272,6.977,13.272,6.977
				s7.153,1.83,12.066,2.104c4.913,0.272,17.749,0.989,17.749,0.989s12.836-0.717,17.749-0.989
				c4.913-0.274,12.066-2.104,12.066-2.104s11.564-1.888,13.272-6.977C344.706,429.185,343.017,417.746,342.925,412.138z"/>
			<path style="fill:#696969;" d="M342.425,402.597c-11.43,4.714-26.28,7.563-42.515,7.563c-16.234,0-31.085-2.849-42.515-7.563
				c-0.278,3.757-0.466,7.403-0.501,9.541c-0.091,5.608-1.78,17.048-0.072,22.138c1.709,5.089,13.272,6.977,13.272,6.977
				s7.153,1.83,12.066,2.104c4.913,0.272,17.749,0.989,17.749,0.989s12.836-0.717,17.749-0.989
				c4.913-0.274,12.066-2.104,12.066-2.104s11.564-1.888,13.272-6.977c1.709-5.09,0.02-16.529-0.072-22.138
				C342.891,410,342.703,406.353,342.425,402.597z"/>
			<g>
				<linearGradient id="SVGID_1_" gradientUnits="userSpaceOnUse" x1="281.6283" y1="444.3457" x2="281.6283" y2="389.2032">
					<stop  offset="0" style="stop-color:#231F20"/>
					<stop  offset="1" style="stop-color:#000000"/>
				</linearGradient>
				<path style="fill:url(#SVGID_1_);" d="M278.924,392.158c-8.11-0.791-18.639-3.803-19.718-2.725
					c-1.079,1.08-2.22,17.096-2.311,22.704c-0.091,5.608-1.78,17.048-0.072,22.138c1.709,5.089,13.272,6.977,13.272,6.977
					s7.153,1.83,12.066,2.104c4.913,0.272,17.749,0.989,17.749,0.989s3.352-0.188,7.284-0.406
					c-11.569-12.282-20.537-30.304-25.316-51.531C280.849,392.332,279.854,392.249,278.924,392.158z"/>
			</g>
			<path style="fill:#FFD64E;" d="M345.498,169.545c-9.847-35.26-15.448-43.662-15.448-43.662l-30.14-3.92l-30.139,3.92
				c0,0-5.602,8.402-15.449,43.662c-5.605,20.072-11.489,57.53-11.489,57.53h57.078h57.077
				C356.987,227.076,351.104,189.617,345.498,169.545z"/>
			<path style="fill:#F0B300;" d="M255.689,169.268c7.801-28.633,12.937-39.987,14.735-43.469l-0.653,0.085
				c0,0-5.602,8.402-15.449,43.662c-5.605,20.072-11.489,57.53-11.489,57.53h1.549C245.409,220.521,250.661,187.726,255.689,169.268
				z"/>
			<path style="fill:#FFE99C;" d="M343.721,168.455c5.239,19.273,10.722,54.148,11.415,58.621h1.852c0,0-5.884-37.458-11.489-57.53
				c-9.847-35.26-15.448-43.662-15.448-43.662l-0.607-0.079C331.561,130.17,336.5,141.895,343.721,168.455z"/>
			<path style="fill:#FDE661;" d="M346.414,278.201l-46.504-16.199l-46.504,20.101l2.429,56.506
				c21.696-22.48,50.719-31.983,88.934-36.676L346.414,278.201z"/>
			<path style="fill:#414042;" d="M322.163,119.088c-5.114-0.727-13.363-1.045-22.253-1.045c-8.89,0-17.139,0.319-22.253,1.045
				s-7.887,6.795-7.887,6.795s21.842-1.079,30.139-1.079c8.297,0,30.14,1.079,30.14,1.079S327.276,119.814,322.163,119.088z"/>
			<g>
				<path style="fill:#343434;" d="M332.711,216.933c-10.25-2.967-32.801-3.345-32.801-3.345s-22.551,0.377-32.801,3.345
					s-24.277,10.143-24.277,10.143l10.574,55.027c0,0,15.739-3.962,21.329-4.428c5.59-0.465,25.175-1.182,25.175-1.182
					s19.585,0.717,25.176,1.182c5.59,0.466,21.328,4.428,21.328,4.428l10.573-55.027C356.987,227.076,342.961,219.9,332.711,216.933
					z"/>
				<path style="fill:#5A5A5A;" d="M352.133,233.01c-0.755-1.672-1.915-1.835-3.183-2.563c-1.269-0.729-12.156-4.78-21.004-6.776
					c-8.848-1.996-28.036-2.266-28.036-2.266s-19.189,0.269-28.037,2.266c-8.848,1.996-19.735,6.047-21.002,6.776
					c-1.269,0.728-2.428,0.891-3.183,2.563c-0.755,1.672-1.06,5.009-0.575,7.697c0.484,2.688,5.754,31.929,5.754,31.929
					s0.85,3.507,1.753,4.343c0.903,0.836,4.936,0.27,4.936,0.27s10.502-2.352,13.649-2.535c3.146-0.184,15.699-0.918,15.699-0.918
					l11.005-0.537l11.005,0.537c0,0,12.553,0.733,15.699,0.918c3.147,0.184,13.65,2.535,13.65,2.535s4.032,0.566,4.936-0.27
					c0.903-0.836,1.753-4.343,1.753-4.343s5.271-29.241,5.755-31.929C353.193,238.019,352.888,234.682,352.133,233.01z"/>
				<path style="fill:#767676;" d="M247.621,243.528c13.418-4.501,31.892-7.283,52.289-7.283c20.398,0,38.871,2.781,52.289,7.283
					c0.255-1.412,0.436-2.418,0.509-2.821c0.485-2.688,0.18-6.024-0.575-7.697c-0.755-1.672-1.915-1.835-3.183-2.563
					c-1.269-0.729-12.156-4.78-21.004-6.776c-8.848-1.996-28.036-2.266-28.036-2.266s-19.189,0.269-28.037,2.266
					c-8.848,1.996-19.735,6.047-21.002,6.776c-1.269,0.728-2.428,0.891-3.183,2.563c-0.755,1.672-1.06,5.009-0.575,7.697
					C247.185,241.11,247.367,242.116,247.621,243.528z"/>
				<g>
					
						<linearGradient id="SVGID_00000075874044013968026770000010504359717033156026_" gradientUnits="userSpaceOnUse" x1="246.8785" y1="249.4205" x2="314.9355" y2="249.4205">
						<stop  offset="0" style="stop-color:#58595B"/>
						<stop  offset="1" style="stop-color:#000000"/>
					</linearGradient>
					<path style="fill:url(#SVGID_00000075874044013968026770000010504359717033156026_);" d="M314.935,222.06
						c-7.691-0.55-15.025-0.654-15.025-0.654s-19.189,0.269-28.037,2.266c-8.848,1.996-19.735,6.047-21.002,6.776
						c-1.269,0.728-2.428,0.891-3.183,2.563c-0.755,1.672-1.06,5.009-0.575,7.697c0.484,2.688,5.754,31.929,5.754,31.929
						s0.85,3.507,1.753,4.343c0.903,0.836,4.936,0.27,4.936,0.27s10.502-2.352,13.649-2.535c1.262-0.074,4.038-0.236,6.91-0.404
						C286.45,251.665,298.962,233.042,314.935,222.06z"/>
				</g>
			</g>
			<path style="fill:#FFB300;" d="M238.084,140.809l-1.422,7.423l-2.692,5.197l-2.872,25.78l3.761,41.28l-1.459,90.994l3.1,83.882
				l0.273,15.318c0,0,0.547,29.176,1.915,35.011c1.368,5.836,4.376,13.402,8.388,17.141c4.012,3.739,21.516,10.396,21.516,10.396
				l-17.778-3.01l-14.924-13.72c0,0-5.59-12.72-6.685-21.291c-1.095-8.571-0.912-14.048-0.365-31.144s3.487-17.522,3.009-27.164
				c-0.479-9.642-0.315-24.49-0.821-64.963c-0.505-40.473-1.137-91.086-1.137-91.086l-1.486-40.117c0,0,1.802-15.591,2.896-23.159
				C232.397,150.01,238.084,140.809,238.084,140.809z"/>
			<path style="fill:#6D6E71;" d="M219.85,261.999c0.594,0.162,17.048-5.395,17.048-5.395s0.207-2.149,0.792-2.635
				c0.584-0.485,2.581-0.89,2.581-0.89s0-6.785,0-7.23c0-0.445-0.777,1.813-2.428,2.401c-1.651,0.589-9.738,3.408-13.029,5.224
				c-3.291,1.816-4.693,4.046-4.963,5.107C219.581,259.643,219.257,261.836,219.85,261.999z"/>
			<path style="fill:#EF4136;" d="M235.891,456.501l1.479-2.747c0,0,4.096,7.783,8.735,10.875c4.639,3.094,7.876,4.614,11.257,5.575
				c3.381,0.962,10.61,2.2,11.23,3.026c0.622,0.824,1.106,1.471,1.106,1.471s-8.415,0.565-11.005,0
				c-2.589-0.568-9.315-3.849-14.53-7.338C238.948,463.874,235.891,456.501,235.891,456.501z"/>
			<path style="fill:#FFFFB3;" d="M366.633,154.533c0.801,2.223,3.155,41.422,2.489,45.511c-0.667,4.089-2.48,9.6-2.48,9.6
				l0.08,36.148l2.133,62.608c0,0-3.816,64.133-0.2,74.267c2.147,6.018,1.375,18.039,0.556,29.467
				c-0.761,10.599-0.111,13.866-2.045,20.533c-1.933,6.667-4.716,21.087-4.716,21.087l-6.262,11.513l-7.504,2.404
				c0,0,7.806-7.626,10.622-15.448c2.816-7.822,4.483-15.822,6.016-25.89c1.533-10.066,1.4-22.267,1.4-22.267l-1.191-33.457
				l0.213-66.742l-1.289-58.075l-0.324-35.574l2.059-15.018c0,0-0.8-30.711-1.423-34.489c-0.623-3.777-3.511-15.867-3.511-15.867
				S365.833,152.311,366.633,154.533z"/>
			<path style="fill:#EF4136;" d="M363.93,456.501l-1.479-2.747c0,0-4.096,7.783-8.734,10.875c-4.64,3.094-7.877,4.614-11.258,5.575
				c-3.381,0.962-10.609,2.2-11.231,3.026c-0.621,0.824-1.106,1.471-1.106,1.471s8.416,0.565,11.006,0
				c2.59-0.568,9.314-3.849,14.53-7.338C360.872,463.874,363.93,456.501,363.93,456.501z"/>
			<path style="fill:#6D6E71;" d="M379.971,261.999c-0.594,0.162-17.048-5.395-17.048-5.395s-0.207-2.149-0.792-2.635
				c-0.584-0.485-2.58-0.89-2.58-0.89s0-6.785,0-7.23c0-0.445,0.777,1.813,2.428,2.401c1.65,0.589,9.737,3.408,13.028,5.224
				c3.29,1.816,4.693,4.046,4.964,5.107C380.24,259.643,380.563,261.836,379.971,261.999z"/>
			<path style="fill:#FFFFFF;" d="M361.736,140.809c0,0,1.449,5.891,1.422,7.014c-0.027,1.123-3.895-3.179-5.937-5.203
				c-0.96-0.953-4.545-4.219-9.745-8.057c-5.859-4.323-11.313-6.593-12.129-8.064c-0.816-1.472-3.291-5.935-3.291-5.935
				s9.234,3.373,12.732,5.395c3.497,2.022,10.512,7.67,12.57,9.657S361.736,140.809,361.736,140.809z"/>
		</g>
	</g>
</g>
</svg>
